<?xml version="1.0" encoding="UTF-8" standalone="no"?>
<!-- Created with Inkscape (http://www.inkscape.org/) -->

<svg
   width="374.20999mm"
   height="316.9516mm"
   viewBox="0 0 374.20999 316.9516"
   version="1.1"
   id="svg1"
   xml:space="preserve"
   xmlns:inkscape="http://www.inkscape.org/namespaces/inkscape"
   xmlns:sodipodi="http://sodipodi.sourceforge.net/DTD/sodipodi-0.dtd"
   xmlns="http://www.w3.org/2000/svg"
   xmlns:svg="http://www.w3.org/2000/svg"><sodipodi:namedview
     id="namedview1"
     pagecolor="#ffffff"
     bordercolor="#000000"
     borderopacity="0.25"
     inkscape:showpageshadow="2"
     inkscape:pageopacity="0.0"
     inkscape:pagecheckerboard="0"
     inkscape:deskcolor="#d1d1d1"
     inkscape:document-units="mm" /><defs
     id="defs1" /><g
     inkscape:label="Layer 1"
     inkscape:groupmode="layer"
     id="layer1"
     transform="translate(-139.81884,47.503638)"><path
       style="fill:#000000"
       d="m 363.14036,269.01394 c -0.64333,-0.22521 -1.61009,-0.68748 -2.14835,-1.02727 -1.90916,-1.2052 -1.80992,-1.03337 -10.99828,-19.04321 -7.19117,-14.09519 -16.15581,-32.38449 -20.81486,-42.46563 -0.5044,-1.0914 -1.45342,-3.11546 -2.10893,-4.49791 -0.65551,-1.38245 -1.45833,-3.10886 -1.78404,-3.83646 -0.32572,-0.72761 -1.09897,-2.39448 -1.71833,-3.70417 -0.61937,-1.30969 -1.39528,-2.97656 -1.72425,-3.70416 -0.32897,-0.72761 -0.94997,-2.09683 -1.37999,-3.04271 -0.43002,-0.94589 -0.96581,-2.13651 -1.19066,-2.64584 -0.91041,-2.0623 -1.39483,-3.1362 -2.29134,-5.07972 -0.51681,-1.12036 -1.25538,-2.78724 -1.64128,-3.70417 -0.3859,-0.91693 -1.10434,-2.53905 -1.59654,-3.6047 -0.4922,-1.06565 -0.89491,-1.99576 -0.89491,-2.06691 0,-0.0711 -0.3091,-0.80659 -0.68689,-1.63432 -0.37778,-0.82773 -0.9731,-2.1333 -1.32291,-2.90126 -0.34982,-0.76797 -0.63603,-1.45995 -0.63603,-1.53774 0,-0.0778 -0.3091,-0.81868 -0.68689,-1.64642 -0.37779,-0.82773 -0.9731,-2.1333 -1.32292,-2.90126 -0.34981,-0.76796 -0.63603,-1.54782 -0.63603,-1.73302 0,-0.1852 -0.0996,-0.44984 -0.22133,-0.58808 -0.12173,-0.13825 -0.49369,-0.9062 -0.82657,-1.70656 -0.33288,-0.80037 -0.81585,-1.93146 -1.07328,-2.51355 -0.25743,-0.58208 -0.68914,-1.62336 -0.95937,-2.31394 -0.80464,-2.05633 -1.21839,-2.45269 -2.52684,-2.42066 -0.87894,0.0215 -12.68513,2.81201 -21.64469,5.11589 -3.36774,0.86599 -4.41046,1.12374 -7.01146,1.73316 -1.60073,0.37505 -3.32713,0.79407 -3.83645,0.93115 -1.13052,0.30427 -2.55829,0.6563 -9.525,2.34846 -2.98318,0.7246 -6.49553,1.57905 -7.80521,1.8988 -1.30969,0.31974 -2.79797,0.67704 -3.30729,0.794 -4.84211,1.11195 -4.45505,0.62482 -7.23937,9.11106 -0.81167,2.47386 -2.25855,6.76011 -3.2153,9.525 -0.95675,2.7649 -1.97652,5.74146 -2.26616,6.61458 -0.28963,0.87313 -0.62846,1.82563 -0.75296,2.11667 -0.12449,0.29104 -0.60972,1.60073 -1.0783,2.91042 -0.46858,1.30969 -0.94838,2.61937 -1.06622,2.91042 -0.11785,0.29104 -0.53144,1.42213 -0.91909,2.51354 -0.38765,1.0914 -0.83177,2.34156 -0.98694,2.77812 -0.15517,0.43656 -0.43134,1.15094 -0.6137,1.5875 -0.18237,0.43656 -0.65031,1.68672 -1.03986,2.77813 -0.38956,1.0914 -0.81377,2.2225 -0.94269,2.51354 -0.12893,0.29104 -0.89858,2.25557 -1.71034,4.36562 -1.66217,4.32059 -2.71888,7.0228 -3.05225,7.80521 -0.12401,0.29104 -0.71881,1.77933 -1.32179,3.30729 -0.60297,1.52797 -1.27189,3.19485 -1.48649,3.70417 -0.21459,0.50932 -0.48904,1.16417 -0.60988,1.45521 -0.12084,0.29104 -0.4185,1.00542 -0.66146,1.5875 -0.72924,1.74711 -0.85584,2.05543 -1.46671,3.57188 -0.3224,0.80036 -0.81744,1.99098 -1.10008,2.64583 -0.28264,0.65484 -0.61413,1.42875 -0.73665,1.71979 -0.12252,0.29104 -0.53274,1.21703 -0.9116,2.05775 -0.37886,0.84073 -0.68883,1.63341 -0.68883,1.76152 0,0.62819 -1.58183,3.18387 -2.56866,4.15005 -1.79353,1.75602 -3.25168,2.33525 -5.89801,2.34292 -1.95589,0.006 -2.36491,-0.0762 -3.13879,-0.62813 -0.48941,-0.34906 -1.05757,-1.03611 -1.26259,-1.52678 -0.32703,-0.78271 -0.31882,-1.07766 0.067,-2.40488 0.24188,-0.83201 0.53214,-1.69277 0.64504,-1.91281 0.11289,-0.22003 0.40191,-0.87631 0.64227,-1.45839 0.54412,-1.31771 0.76092,-1.83992 1.31818,-3.175 0.24296,-0.58208 0.54089,-1.29646 0.66207,-1.5875 0.12118,-0.29104 0.48411,-1.12278 0.80652,-1.8483 0.32242,-0.72552 1.11412,-2.63052 1.75936,-4.23333 0.64523,-1.60281 1.27413,-3.15233 1.39756,-3.44337 0.12343,-0.29104 0.4232,-1.00542 0.66616,-1.5875 0.24296,-0.58208 0.54579,-1.29646 0.67295,-1.5875 0.12716,-0.29104 1.01898,-2.55323 1.98182,-5.02708 1.53185,-3.93584 2.58731,-6.64257 3.30149,-8.46667 0.65404,-1.67049 1.16189,-3.02189 2.38631,-6.35 0.74952,-2.03729 1.64231,-4.41854 1.98396,-5.29167 1.211,-3.09479 3.30859,-9.08436 3.30859,-9.44753 0,-0.20268 0.10236,-0.48162 0.22746,-0.61986 0.1251,-0.13825 0.72748,-1.73964 1.33862,-3.55865 0.61114,-1.81901 1.38404,-4.0812 1.71755,-5.02708 0.33351,-0.94589 0.8128,-2.37464 1.06509,-3.175 0.25229,-0.80037 0.5514,-1.69334 0.66468,-1.98438 0.11329,-0.29104 0.41094,-1.18401 0.66146,-1.98437 0.25052,-0.80037 0.54795,-1.69334 0.66095,-1.98438 0.31448,-0.80998 0.80794,-2.39702 0.80794,-2.59847 0,-0.26183 -1.55072,-0.2197 -2.49475,0.0678 -0.4469,0.13609 -1.58644,0.4432 -2.53233,0.68248 -0.94589,0.23927 -2.13651,0.54127 -2.64583,0.6711 -0.50933,0.12984 -3.42636,0.83773 -6.48229,1.5731 -3.05594,0.73536 -6.27063,1.5221 -7.14375,1.74831 -0.87313,0.2262 -2.00422,0.51145 -2.51355,0.63389 -0.50932,0.12244 -1.46182,0.3698 -2.11666,0.5497 -0.65485,0.17989 -1.66688,0.41464 -2.24896,0.52165 -0.94461,0.17367 -3.91486,0.89317 -6.48229,1.57024 -5.58646,1.47323 -7.864,1.90665 -9.19626,1.75007 -1.88496,-0.22154 -4.47684,-1.44619 -5.62041,-2.65561 -0.85016,-0.89912 -0.88865,-1.00694 -0.46977,-1.31584 0.25095,-0.18505 1.56064,-0.60476 2.91042,-0.93268 1.34978,-0.32792 2.81133,-0.69713 3.24789,-0.82047 0.43657,-0.12335 2.10344,-0.53267 3.70417,-0.90961 1.60073,-0.37695 3.56526,-0.85607 4.36562,-1.06473 0.80037,-0.20865 3.24115,-0.80618 5.42396,-1.32784 4.96271,-1.18601 6.89097,-1.65882 8.06979,-1.97871 0.50933,-0.13822 2.95011,-0.73712 5.42396,-1.3309 12.46371,-2.99156 13.06983,-3.13975 16.6603,-4.07342 2.24692,-0.58429 2.79347,-1.26604 3.94054,-4.91526 0.94421,-3.00386 1.13946,-3.64295 2.38459,-7.80521 1.17904,-3.9413 2.06103,-6.87585 2.30613,-7.67291 0.24684,-0.80273 2.11381,-7.31007 2.65683,-9.26042 0.16206,-0.58208 0.44404,-1.59412 0.62661,-2.24896 0.18257,-0.65484 0.45995,-1.66687 0.61639,-2.24896 0.15645,-0.58208 0.46701,-1.71317 0.69014,-2.51354 0.22314,-0.80036 0.70567,-2.5863 1.07229,-3.96875 0.72942,-2.75045 0.96726,-3.63403 1.56685,-5.82083 0.51137,-1.86509 1.472,-5.6827 1.731,-6.87917 0.2037,-0.94097 0.61075,-2.55863 1.06524,-4.23333 0.23902,-0.88072 0.76226,-3.06265 2.26812,-9.45812 1.45784,-6.19147 1.60247,-6.82608 2.36706,-10.38563 0.23443,-1.09141 0.53209,-2.46063 0.66146,-3.04271 0.46336,-2.08484 1.09989,-5.04796 1.33566,-6.21771 0.13199,-0.65485 0.42965,-2.0836 0.66146,-3.175 0.55817,-2.62795 0.8237,-3.94277 1.30908,-6.48229 0.53846,-2.81719 0.83113,-4.34275 1.31973,-6.87917 0.22426,-1.164167 0.52079,-2.71198 0.65894,-3.439584 0.13816,-0.727604 0.4293,-2.215885 0.64697,-3.307292 0.21768,-1.091406 0.45838,-2.401094 0.5349,-2.910417 0.0765,-0.509322 0.32451,-1.878541 0.55109,-3.042708 0.38705,-1.988611 0.68902,-3.663705 1.08933,-6.042821 0.20319,-1.207588 -0.27516,-4.053378 -1.1358,-6.757098 -1.14209,-3.587877 -0.75449,-6.507531 1.09318,-8.234457 0.67033,-0.626529 0.8951,-0.666031 4.25647,-0.748055 3.38964,-0.08272 3.6159,-0.05483 5.04628,0.621844 1.97433,0.934007 3.80407,2.681224 4.67891,4.467889 0.38938,0.795215 0.70796,1.568241 0.70796,1.717837 0,0.149596 0.16185,0.782169 0.35967,1.405718 0.19782,0.623549 0.57293,1.907632 0.83359,2.853518 0.51704,1.876248 1.27267,4.435887 2.34783,7.953136 0.38074,1.245528 0.69225,2.408003 0.69225,2.583278 0,0.175276 0.10424,0.525427 0.23165,0.778114 0.12742,0.252687 0.42204,1.114274 0.65473,1.914639 0.5429,1.867387 1.6022,5.244381 2.69733,8.598958 0.47507,1.455209 1.2244,3.776931 1.66518,5.159371 0.83847,2.62977 0.9962,3.09664 1.92181,5.68855 0.3118,0.87312 0.66105,1.94468 0.77611,2.38125 0.11506,0.43656 1.00283,3.05593 1.97283,5.82083 0.96999,2.7649 1.82563,5.26521 1.90141,5.55625 0.0758,0.29104 0.30456,0.90435 0.50837,1.3629 0.20382,0.45856 0.37058,1.00029 0.37058,1.20386 0,0.20356 0.098,0.48323 0.21782,0.62147 0.11981,0.13824 0.44192,0.96573 0.7158,1.83885 0.27389,0.87313 0.59259,1.70061 0.70822,1.83886 0.11563,0.13824 0.21024,0.46163 0.21024,0.71863 0,0.257 0.1951,0.91779 0.43355,1.46843 0.58503,1.35098 0.73395,1.7399 1.54844,4.04388 0.38583,1.0914 0.82337,2.28203 0.97231,2.64583 0.14894,0.3638 0.44539,1.19724 0.65877,1.85208 0.21337,0.65485 0.69144,1.96453 1.06237,2.91042 0.73621,1.87736 0.89532,2.29935 2.34443,6.21771 1.30167,3.51972 3.0352,8.07367 3.32369,8.73125 0.12768,0.29104 1.18808,3.02948 2.35644,6.08542 1.16836,3.05593 2.23625,5.79437 2.37309,6.08541 0.13683,0.29104 1.03254,2.55323 1.99047,5.02709 2.07658,5.36281 2.21617,5.6535 2.94362,6.13015 0.57646,0.37771 0.90033,0.31884 6.71574,-1.22084 0.50932,-0.13485 1.69994,-0.43421 2.64583,-0.66525 0.94588,-0.23103 2.13651,-0.53081 2.64583,-0.66616 1.02549,-0.27253 5.7231,-1.38562 7.84141,-1.85802 2.55478,-0.56972 6.13425,0.55382 8.045,2.52522 1.00608,1.03801 0.90534,1.59395 -0.32181,1.77589 -0.7888,0.11694 -3.80499,0.84517 -6.30418,1.52206 -0.50932,0.13795 -4.14073,1.03485 -8.06979,1.9931 -3.92907,0.95826 -7.94742,1.93968 -8.92969,2.18094 -1.58104,0.38833 -1.78594,0.51082 -1.78594,1.06767 0,0.34596 0.19272,1.06373 0.42827,1.59504 0.23554,0.53132 0.5985,1.38275 0.80656,1.89207 0.20807,0.50932 0.4916,1.13279 0.63007,1.38547 0.13847,0.25269 0.25177,0.57181 0.25177,0.70915 0,0.13734 0.36474,1.06169 0.81054,2.05411 0.4458,0.99242 0.91018,2.04252 1.03196,2.33356 0.12179,0.29105 0.45716,1.06495 0.74527,1.7198 0.28811,0.65484 0.95448,2.233 1.48083,3.50703 0.52635,1.27402 1.18146,2.82183 1.45581,3.43958 0.27435,0.61775 0.73722,1.65896 1.0286,2.3138 0.29138,0.65485 0.85267,1.96453 1.24731,2.91042 0.39464,0.94588 1.0632,2.47224 1.48569,3.3919 0.42248,0.91965 0.76816,1.71463 0.76816,1.76661 0,0.052 0.42793,1.02594 0.95096,2.16435 0.52303,1.13842 1.29694,2.8223 1.71979,3.74195 0.42286,0.91966 0.76883,1.72035 0.76883,1.77932 0,0.10742 0.97097,2.25883 2.40777,5.33494 0.42197,0.90344 0.76723,1.69867 0.76723,1.76717 0,0.0685 0.77391,1.7533 1.71979,3.74399 0.94589,1.99068 1.7198,3.66645 1.7198,3.72394 0,0.0575 0.54681,1.26493 1.21515,2.6832 0.66833,1.41827 1.54968,3.29305 1.95855,4.16617 0.40886,0.87313 1.51116,3.19485 2.44954,5.15938 0.93839,1.96453 2.58712,5.41654 3.66385,7.67113 3.2697,6.8465 21.05049,42.15628 21.6516,42.99658 0.62532,0.87414 1.60505,3.77212 1.60505,4.74763 0,2.24447 -1.29826,4.25259 -3.35892,5.19551 -1.40463,0.64274 -5.19762,0.68273 -6.9389,0.0732 z M 249.74548,155.14575 c 0.43656,-0.12954 1.56765,-0.42281 2.51354,-0.6517 0.94588,-0.2289 2.13651,-0.52692 2.64583,-0.66228 0.50933,-0.13535 2.23573,-0.55337 3.83646,-0.92893 1.60073,-0.37555 3.32714,-0.79809 3.83646,-0.93897 0.50932,-0.14087 3.66448,-0.91237 7.01146,-1.71443 3.34698,-0.80207 6.50213,-1.57202 7.01146,-1.71102 1.93887,-0.52913 5.4667,-1.39232 6.48229,-1.5861 0.95411,-0.18205 2.66447,-0.60467 7.01146,-1.73249 0.80036,-0.20766 3.47927,-0.86987 5.95312,-1.47158 2.47385,-0.60171 4.53889,-1.13164 4.58896,-1.17761 0.0743,-0.0682 -2.52618,-6.76677 -3.38556,-8.72093 -0.46505,-1.05751 -3.15371,-7.73553 -4.1012,-10.18646 -0.53443,-1.38245 -1.06907,-2.75167 -1.18808,-3.04271 -0.11902,-0.29104 -0.42541,-1.06495 -0.68088,-1.71979 -0.25547,-0.65485 -0.61279,-1.54782 -0.79406,-1.98438 -0.18126,-0.43656 -1.36391,-3.53219 -2.62811,-6.87916 -1.26419,-3.34698 -2.4094,-6.29217 -2.54491,-6.54485 -0.1355,-0.25269 -0.24637,-0.59188 -0.24637,-0.75377 0,-0.16188 -0.16707,-0.66951 -0.37126,-1.12807 -0.2042,-0.45855 -0.68933,-1.7267 -1.07808,-2.81811 -0.38874,-1.0914 -0.86616,-2.40109 -1.06092,-2.91041 -0.88192,-2.30631 -1.32352,-3.50031 -2.29962,-6.21771 -0.57499,-1.60073 -1.28431,-3.62479 -1.57627,-4.49792 -0.29196,-0.87312 -0.63184,-1.82562 -0.7553,-2.11667 -0.36505,-0.86064 -1.46667,-4.0024 -2.644,-7.54062 -0.60527,-1.81901 -1.20478,-3.54542 -1.33225,-3.83646 -0.12747,-0.29104 -0.78184,-2.19401 -1.45416,-4.22882 -1.10056,-3.33093 -1.58933,-4.32006 -1.95434,-3.95505 -0.0669,0.067 -0.213,0.68556 -0.32456,1.37468 -0.11155,0.68912 -0.37631,2.02685 -0.58835,2.97273 -0.21204,0.94589 -0.51154,2.31511 -0.66555,3.04271 -0.15401,0.7276 -0.46549,2.15635 -0.69218,3.175 -0.22669,1.01865 -0.51591,2.32833 -0.64272,2.91042 -0.12681,0.58208 -0.43505,1.9513 -0.68496,3.04271 -0.24992,1.0914 -0.54962,2.40109 -0.666,2.91041 -0.11638,0.50933 -0.40937,1.75948 -0.6511,2.77813 -0.24172,1.01864 -0.54961,2.37447 -0.6842,3.01294 -0.40345,1.91396 -2.31282,9.74233 -2.91124,11.93602 -0.17863,0.65484 -0.41521,1.60734 -0.52572,2.11666 -0.19931,0.91859 -1.67218,6.60816 -2.5,9.6573 -0.23705,0.87312 -0.72891,2.71859 -1.09302,4.10104 -0.74619,2.83311 -0.9122,3.44395 -1.54598,5.68854 -0.24653,0.87312 -0.54418,1.94469 -0.66145,2.38125 -0.11727,0.43656 -0.41493,1.50812 -0.66146,2.38125 -0.24653,0.87312 -0.54419,1.94469 -0.66146,2.38125 -0.29351,1.09265 -0.95379,3.41569 -1.46646,5.15937 -0.23532,0.80037 -0.53039,1.8124 -0.65572,2.24896 -0.12533,0.43657 -0.42298,1.4486 -0.66146,2.24896 -0.60997,2.04716 -0.84862,2.85294 -1.29296,4.36563 -0.21373,0.7276 -0.70595,2.33494 -1.09382,3.57187 -0.38787,1.23693 -0.80598,2.60615 -0.92912,3.04271 -0.12315,0.43656 -0.52635,1.79131 -0.896,3.01056 -0.36966,1.21924 -0.60136,2.33127 -0.5149,2.47116 0.15775,0.25525 1.38714,0.11615 2.87472,-0.32526 z m -93.00105,-5.47258 c -4.00182,-1.97304 -8.37737,-4.12358 -9.72343,-4.77899 -1.34607,-0.6554 -2.44603,-1.32494 -2.44436,-1.48785 0.002,-0.16291 0.44815,-0.49806 0.99218,-0.74477 0.94803,-0.42992 3.28068,-1.46501 4.95791,-2.20001 0.43656,-0.19132 1.56765,-0.69968 2.51354,-1.1297 0.94588,-0.43002 2.3151,-1.05101 3.04271,-1.37998 0.7276,-0.32896 2.19481,-0.99958 3.26046,-1.49025 1.06566,-0.49066 1.98898,-0.89212 2.05182,-0.89212 0.0628,0 0.73611,-0.29999 1.49615,-0.66664 0.76003,-0.36666 1.53336,-0.60852 1.71849,-0.53747 0.47498,0.18226 0.43439,2.39145 -0.0529,2.87873 -0.21422,0.21422 -1.23369,0.7207 -2.26549,1.12552 -1.03179,0.40481 -1.99073,0.9504 -2.13096,1.21242 -0.14143,0.26428 -0.22243,2.26768 -0.1819,4.49931 l 0.0731,4.0229 1.5875,0.75415 c 3.00129,1.42579 2.91042,1.33593 2.91042,2.87809 0,0.76102 -0.11907,1.41525 -0.26459,1.45384 -0.14552,0.0386 -3.5388,-1.54414 -7.54062,-3.51718 z m 0.36857,-3.67427 c 0.27998,-0.72961 0.17838,-4.83093 -0.1243,-5.018 -0.47094,-0.29106 -5.81852,2.06436 -5.73508,2.5261 0.0667,0.36937 4.72532,2.87141 5.39636,2.8983 0.16633,0.007 0.37469,-0.17622 0.46302,-0.4064 z m 206.13873,-14.38418 c -0.58209,-0.2628 -1.34018,-0.78293 -1.68465,-1.15584 l -0.62631,-0.67802 0.69953,-0.64831 c 0.45544,-0.42209 1.41254,-0.81146 2.74298,-1.11591 1.12389,-0.25718 2.93642,-0.69685 4.02782,-0.97703 1.09141,-0.28018 2.75828,-0.68901 3.70417,-0.9085 0.94588,-0.21949 2.16627,-0.50737 2.71198,-0.63972 0.5457,-0.13235 1.43867,-0.34893 1.98437,-0.48129 0.54571,-0.13235 1.79586,-0.43001 2.77813,-0.66145 0.98226,-0.23145 2.58961,-0.61019 3.57187,-0.84163 0.98227,-0.23145 2.20266,-0.52044 2.71198,-0.6422 2.41209,-0.57665 4.71531,-1.12098 5.55625,-1.31313 0.50932,-0.11638 1.81901,-0.41634 2.91042,-0.66657 1.0914,-0.25023 2.40109,-0.54789 2.91041,-0.66146 0.50933,-0.11357 1.81901,-0.41226 2.91042,-0.66375 5.06335,-1.16676 6.22405,-1.31032 7.49066,-0.92648 2.6331,0.79796 3.42057,1.17512 3.69052,1.76759 0.2209,0.48484 0.18508,0.71898 -0.17006,1.1114 -0.41673,0.46048 -1.23131,0.7018 -5.98404,1.77276 -0.94588,0.21315 -2.13651,0.49455 -2.64583,0.62534 -1.03516,0.26582 -8.19292,1.96078 -10.84792,2.56878 -0.94588,0.21661 -2.91041,0.67743 -4.36562,1.02405 -5.63436,1.34203 -8.53228,2.02845 -10.18646,2.4128 -1.86965,0.43443 -2.23959,0.52466 -6.29395,1.53526 -3.26911,0.81486 -6.02243,0.87405 -7.59667,0.16331 z m -201.08334,-0.0274 c -1.01864,-0.11337 -3.51896,-0.39599 -5.55625,-0.62806 -2.03729,-0.23206 -4.29948,-0.48576 -5.02708,-0.56377 -0.72761,-0.078 -2.32041,-0.26992 -3.53956,-0.42648 l -2.21665,-0.28464 0.16466,-1.62151 c 0.0906,-0.89184 0.28772,-2.87167 0.43813,-4.39964 0.15041,-1.52797 0.36374,-3.19485 0.47407,-3.70417 0.19232,-0.88783 0.2537,-0.92944 1.48751,-1.00831 l 1.28692,-0.0823 -0.20133,1.93435 c -0.11073,1.06389 -0.29005,2.76778 -0.3985,3.78643 -0.24501,2.30124 0.0259,2.62318 2.41881,2.87403 1.96676,0.20618 2.32918,-0.0721 2.34428,-1.80012 0.007,-0.77635 0.60772,-5.35519 0.77141,-5.87779 0.0134,-0.0426 0.37957,0.0228 1.70469,0.30463 l 0.7657,0.16283 -0.18607,2.03592 c -0.10233,1.11975 -0.27606,2.73403 -0.38606,3.58727 -0.24624,1.91003 0.0377,2.27878 1.77162,2.30088 0.68083,0.009 1.83318,0.11453 2.56079,0.23525 1.93457,0.32096 2.14047,0.12086 2.35665,-2.29021 0.47307,-5.27611 0.46035,-5.22782 1.40143,-5.31886 1.57768,-0.15261 1.82944,0.19195 1.6375,2.24109 -0.74889,7.995 -0.92128,8.85215 -1.76687,8.7852 -0.24954,-0.0198 -1.28715,-0.12869 -2.3058,-0.24206 z m -19.37914,-6.25726 c -0.87594,-0.75481 -2.97893,-3.47766 -2.97039,-3.84592 0.0118,-0.50651 1.55555,-2.10044 1.85508,-1.91531 0.1442,0.0891 0.82069,1.28678 1.50332,2.66148 l 1.24114,2.49946 -0.53826,0.53825 c -0.52,0.52001 -0.55698,0.52211 -1.09089,0.062 z m 350.94543,-5.70174 c -0.34823,-0.56685 -0.78457,-3.92917 -1.10734,-8.53281 -0.30356,-4.32964 -0.74008,-7.32498 -1.08688,-7.45806 -0.18869,-0.0724 -1.15116,0.0628 -2.13882,0.30051 -0.98766,0.23769 -2.39106,0.56423 -3.11867,0.72565 -3.05117,0.67689 -4.06556,1.04714 -4.4261,1.61552 -0.20341,0.32067 -0.59063,1.59508 -0.86048,2.832 -0.26984,1.23693 -0.64859,2.56916 -0.84166,2.9605 -0.321,0.65068 -1.29768,1.53742 -1.69337,1.53742 -0.46848,0 -0.9111,-1.74716 -1.03493,-4.0852 l -0.13929,-2.63 -0.79375,-0.18831 c -0.43656,-0.10358 -1.24023,-0.26493 -1.78594,-0.35856 -0.5457,-0.0936 -0.99218,-0.28014 -0.99218,-0.41445 0,-0.13432 0.53113,-0.63494 1.1803,-1.11249 1.25589,-0.92388 1.53173,-1.77577 0.83127,-2.56724 -0.73083,-0.82579 -2.29941,-4.0919 -2.22246,-4.62763 0.0867,-0.60361 0.70952,-0.8163 1.67833,-0.57315 0.34751,0.0872 1.67026,1.16933 2.93943,2.40468 1.5342,1.49331 2.51075,2.2461 2.91376,2.2461 0.5355,0 1.7478,-0.37936 3.39499,-1.06239 0.29104,-0.12069 1.12448,-0.41986 1.85208,-0.66484 3.11528,-1.04888 3.83646,-1.3991 3.83646,-1.86308 0,-0.48701 -3.7876,-8.14351 -5.66096,-11.44342 -1.44814,-2.5509 -1.54615,-3.56645 -0.35737,-3.70321 0.60188,-0.0692 1.11574,0.28701 2.95576,2.04916 2.42185,2.31937 3.03991,2.66486 4.76719,2.66486 1.38537,0 1.61734,0.26229 1.81917,2.05683 0.0863,0.76745 0.22877,1.51159 0.31657,1.65364 0.0878,0.14206 0.78468,0.25828 1.54865,0.25828 1.84287,0 2.25623,0.34843 2.46053,2.07404 0.092,0.77692 0.30116,1.46396 0.46484,1.52677 0.16367,0.0628 1.18763,-0.0725 2.27546,-0.3007 4.10552,-0.86121 5.19679,-1.02374 6.74037,-1.00385 2.0768,0.0267 3.1728,0.29159 3.72309,0.89965 0.40816,0.45101 0.41135,0.55018 0.0361,1.12285 -1.12241,1.71301 -3.65529,3.2282 -7.59567,4.54376 -2.39553,0.7998 -3.43964,1.27752 -3.43859,1.5733 5.4e-4,0.15389 0.21852,0.637 0.48439,1.07356 1.08536,1.78216 1.0079,2.09952 -0.85103,3.48659 l -1.69234,1.26276 0.82806,0.61092 c 1.67597,1.23649 1.54262,2.67266 -0.33657,3.62492 -1.24748,0.63214 -1.87308,1.50175 -1.87308,2.60362 0,1.11263 -1.04779,4.24086 -1.62696,4.85735 -0.72295,0.76955 -0.91243,0.77288 -1.37238,0.0241 z m -328.1267,-2.62754 c -0.58209,-0.12778 -1.71318,-0.35626 -2.51355,-0.50774 -0.80036,-0.15148 -1.91862,-0.39595 -2.48501,-0.54326 -0.56639,-0.14732 -1.57842,-0.3616 -2.24895,-0.47618 -1.17504,-0.2008 -5.10077,-0.98407 -8.32873,-1.66177 -0.85433,-0.17937 -1.61651,-0.49077 -1.69373,-0.692 -0.18826,-0.49061 0.38388,-3.51537 0.99247,-5.24692 1.04428,-2.97117 2.69823,-4.31803 5.30257,-4.31803 2.66596,0 4.51591,1.30683 5.43092,3.83646 0.26318,0.72761 0.51267,1.36827 0.55441,1.4237 0.0823,0.10924 0.43538,-0.0488 5.35989,-2.39854 1.80439,-0.86097 3.37313,-1.4701 3.4861,-1.35362 0.11296,0.11649 0.0593,0.85382 -0.1193,1.63853 -0.30507,1.34052 -0.4038,1.46559 -1.63402,2.0699 -0.72013,0.35374 -1.84511,0.85969 -2.49995,1.12433 -2.41601,0.97636 -4.71906,2.10616 -4.90429,2.40587 -0.26631,0.4309 0.22425,0.6725 2.09545,1.032 0.89002,0.171 2.09447,0.41529 2.67655,0.54288 0.58208,0.12758 1.40063,0.30422 1.81898,0.39253 0.71956,0.15188 0.75282,0.21898 0.61561,1.24195 -0.19746,1.4722 -0.58952,1.77877 -1.90542,1.48991 z m -8.07911,-5.22642 c 0.43375,-0.81045 0.32879,-3.15012 -0.17995,-4.01134 -0.27606,-0.46734 -0.90389,-0.94017 -1.60271,-1.20706 -1.06118,-0.40527 -1.21738,-0.40607 -2.04674,-0.0106 -1.0651,0.50791 -1.579,1.22758 -2.0907,2.92782 -0.36712,1.21985 -0.36087,1.26399 0.21615,1.52689 0.53924,0.2457 4.33291,1.17698 5.10864,1.25409 0.17678,0.0176 0.44467,-0.19834 0.59531,-0.47982 z m 269.66343,5.18052 c -1.48836,-0.33251 -2.68953,-1.16948 -2.68953,-1.87404 0,-0.66844 1.88412,-1.34819 7.01146,-2.52956 2.61937,-0.60353 5.03599,-1.20773 5.37026,-1.34269 0.33427,-0.13496 0.84768,-0.24537 1.14091,-0.24537 0.29323,0 1.0913,-0.16447 1.77349,-0.36549 0.68218,-0.20102 2.60955,-0.68338 4.28304,-1.07192 1.67349,-0.38854 3.45943,-0.81085 3.96875,-0.93847 1.02059,-0.25572 4.03617,-0.96211 5.68855,-1.33252 0.58208,-0.13048 1.90506,-0.44317 2.93996,-0.69485 1.79798,-0.43726 1.96267,-0.43618 3.70417,0.0243 2.95135,0.78041 4.42693,2.29938 2.98391,3.07166 -0.62281,0.33332 -3.24286,1.05753 -5.65929,1.56429 -0.87313,0.18311 -1.94469,0.43701 -2.38125,0.56423 -0.43657,0.12721 -1.38907,0.35748 -2.11667,0.51171 -0.72761,0.15422 -1.73964,0.38288 -2.24896,0.50812 -0.50932,0.12523 -1.69995,0.40776 -2.64583,0.62783 -0.94589,0.22007 -2.73183,0.65333 -3.96875,0.96279 -2.08528,0.52171 -4.54841,1.10775 -9.525,2.26623 -2.48525,0.57853 -5.78567,0.7056 -7.62922,0.29373 z M 169.57673,101.58177 c -0.14553,-0.0436 -0.74084,-0.21088 -1.32292,-0.37173 -0.58208,-0.16084 -2.07037,-0.57739 -3.30729,-0.92565 -3.36431,-0.94725 -7.10963,-1.99251 -8.59896,-2.39986 -3.25022,-0.88896 -4.36563,-1.27556 -4.36563,-1.51312 0,-0.1403 0.13403,-0.78734 0.29783,-1.43786 0.22729,-0.90267 0.39961,-1.15053 0.7276,-1.04661 0.23638,0.0749 1.56088,0.44018 2.94332,0.81175 1.38245,0.37158 3.16839,0.86216 3.96875,1.09018 0.80037,0.22802 1.8124,0.51414 2.24896,0.63581 0.43656,0.12168 1.21047,0.33959 1.71979,0.48426 0.50933,0.14466 2.05714,0.56794 3.43959,0.94062 3.94702,1.06403 4.01122,1.1017 3.80749,2.23402 -0.2535,1.40894 -0.63441,1.7751 -1.55853,1.49819 z m 0.94903,-7.69988 c -0.49668,-0.21554 -1.92543,-0.738 -3.175,-1.16102 -1.24957,-0.42302 -3.64117,-1.2662 -5.31466,-1.87375 -1.67349,-0.60754 -3.28083,-1.16192 -3.57187,-1.23195 -0.29105,-0.07 -0.7673,-0.22722 -1.05834,-0.34929 -0.29104,-0.12208 -1.09471,-0.42597 -1.78594,-0.67532 -0.77805,-0.28068 -1.25677,-0.61268 -1.25677,-0.8716 0,-0.37764 0.50379,-1.96229 1.06386,-3.34634 0.11777,-0.29104 0.42686,-1.18401 0.68685,-1.98437 0.26,-0.80037 0.56776,-1.56832 0.68392,-1.70657 0.11617,-0.13824 0.21121,-0.47158 0.21121,-0.74074 0,-0.38075 0.60483,-1.8692 0.91275,-2.2462 0.14572,-0.17843 2.26206,0.84712 2.26094,1.09562 -7.2e-4,0.15983 -0.36622,1.30263 -0.81224,2.53955 -1.3492,3.74178 -1.55984,4.35709 -1.56385,4.56835 -0.004,0.19503 0.3692,0.37854 2.8518,1.40339 0.98001,0.40456 1.18468,0.4173 1.4917,0.0928 0.3916,-0.41384 1.99445,-4.6982 2.20248,-5.88716 0.1638,-0.93621 0.58173,-1.10356 1.77363,-0.7102 1.12281,0.37057 1.19752,0.91044 0.40443,2.92254 -0.99262,2.51829 -1.61411,4.55885 -1.48832,4.88666 0.0689,0.17957 0.40296,0.38744 0.74234,0.46193 0.33937,0.0745 1.6034,0.49653 2.80894,0.93786 l 2.1919,0.80243 0.37128,-0.57213 c 0.2042,-0.31468 0.56529,-1.16745 0.80242,-1.89506 0.23713,-0.7276 0.73525,-2.13713 1.10693,-3.13228 l 0.67578,-1.80936 0.96011,0.1763 c 0.52805,0.097 1.06991,0.28281 1.20412,0.41297 0.29095,0.28217 -0.0941,1.66324 -1.85872,6.66748 -1.19381,3.38541 -1.32926,3.6373 -1.95076,3.62766 -0.36733,-0.006 -1.07424,-0.18671 -1.57092,-0.40225 z m 5.26867,-14.02701 c -2.45539,-1.14083 -9.97765,-4.72576 -14.3891,-6.85753 -2.65115,-1.28112 -2.65736,-1.24473 0.38504,-2.25368 0.93551,-0.31024 1.93906,-0.67014 2.23011,-0.79977 0.52978,-0.23595 2.98176,-1.07888 9.64194,-3.31462 4.70739,-1.58022 4.98656,-1.81381 3.1242,-2.61403 -0.61846,-0.26575 -2.55323,-1.16838 -4.29948,-2.00585 -1.74625,-0.83747 -3.74646,-1.77972 -4.44491,-2.09389 -1.51635,-0.68206 -1.70443,-1.05333 -1.13815,-2.246674 0.53919,-1.136258 0.84653,-1.234639 2.00593,-0.642109 0.51222,0.261774 2.47911,1.204253 4.37088,2.094393 8.51328,4.0058 12.30515,5.85842 12.44115,6.07848 0.0977,0.15813 -0.44537,0.36115 -5.95886,2.22755 -1.52797,0.51724 -3.01625,1.04906 -3.30729,1.18181 -0.29104,0.13275 -0.76729,0.30093 -1.05833,0.37372 -0.71547,0.17895 -6.28623,2.14355 -6.6162,2.33328 -0.14463,0.0832 -0.59885,0.23159 -1.00937,0.32984 -0.41086,0.0983 -0.70059,0.32292 -0.6445,0.4996 0.11278,0.35523 0.50278,0.56015 6.88101,3.61566 3.65911,1.7529 4.43177,2.22026 4.43177,2.68065 0,0.55089 -0.77543,2.09687 -1.04924,2.09187 -0.0778,-0.001 -0.79623,-0.30684 -1.5966,-0.6787 z m 322.72552,-6.52663 c -0.25466,-0.62261 -0.46302,-1.35779 -0.46302,-1.63372 0,-0.27594 0.73162,-1.8225 1.62582,-3.43681 0.8942,-1.6143 1.906,-3.44494 2.24846,-4.06807 0.4941,-0.89908 0.54736,-1.16187 0.25799,-1.27291 -0.20055,-0.077 -1.75247,0.52218 -3.4487,1.33141 -1.69623,0.80924 -3.24959,1.47134 -3.45193,1.47134 -0.4008,0 -1.20039,-1.40309 -1.20039,-2.1064 0,-0.4354 0.3463,-0.61721 8.99584,-4.72282 1.81901,-0.863414 4.31881,-2.061305 5.55511,-2.661977 1.23631,-0.600673 2.38852,-1.092132 2.56048,-1.092132 0.2923,0 0.99824,1.315889 2.25552,4.204359 0.35813,0.82277 0.54265,1.86594 0.56707,3.20602 0.033,1.81182 -0.0333,2.08363 -0.75463,3.09249 -1.86549,2.60908 -5.43075,3.14492 -8.02527,1.20617 -0.81148,-0.60638 -0.9194,-0.6259 -1.30863,-0.23667 -0.23332,0.23332 -1.2783,2.0635 -2.32219,4.06707 -1.0439,2.00357 -2.06235,3.67476 -2.26325,3.71376 -0.21426,0.0416 -0.55666,-0.39705 -0.82828,-1.06111 z m 11.00373,-8.3863 c 1.19481,-0.45427 1.76242,-1.32478 1.76242,-2.70295 0,-1.50821 -0.70151,-3.13409 -1.35224,-3.13409 -0.59717,0 -4.77338,2.0182 -5.0277,2.42969 -0.39484,0.63887 1.2865,3.05773 2.41119,3.46887 0.6322,0.23111 1.50034,0.2069 2.20633,-0.0615 z m -18.58892,-6.728164 c -0.78033,-1.26261 -0.69857,-1.583372 0.57374,-2.250733 0.61846,-0.324402 1.48166,-0.806806 1.91822,-1.072007 1.38981,-0.844276 5.02457,-2.909141 7.9375,-4.509203 0.87313,-0.479604 1.70657,-0.955743 1.85209,-1.058088 0.14552,-0.102344 1.06443,-0.626048 2.04202,-1.163786 l 1.77745,-0.977705 0.66604,1.055081 c 0.79518,1.259641 0.70871,1.593767 -0.58949,2.277849 -0.54208,0.285651 -2.14025,1.199585 -3.55149,2.030964 -1.41123,0.83138 -3.19717,1.853487 -3.96875,2.271349 -0.77157,0.417863 -1.81958,0.998243 -2.32891,1.289733 -3.33284,1.90742 -5.36384,2.99386 -5.60081,2.99604 -0.0973,9e-4 -0.4247,-0.399375 -0.72761,-0.889494 z m -3.71422,-5.657312 c 0.006,-0.109141 0.12683,-0.734219 0.26776,-1.389063 0.14094,-0.654844 0.36958,-1.845469 0.50811,-2.645833 0.33087,-1.911693 1.61925,-8.539375 2.1602,-11.112501 0.36498,-1.736141 0.5847,-4.233333 0.37246,-4.233333 -0.10072,0 -1.21636,0.715287 -2.4792,1.589528 -1.26283,0.874241 -2.47466,1.707314 -2.69294,1.851273 -0.21828,0.14396 -1.50219,1.036016 -2.85314,1.982347 -1.35095,0.946331 -2.56529,1.720602 -2.69852,1.720602 -0.30083,0 -1.59209,-1.666029 -1.59209,-2.054175 0,-0.156439 1.63711,-1.418367 3.63802,-2.804284 2.00092,-1.385917 3.99521,-2.769642 4.43177,-3.074945 0.43657,-0.305302 1.98438,-1.375547 3.43959,-2.378322 1.45521,-1.002775 2.95962,-2.067187 3.34313,-2.365361 0.77973,-0.606221 2.19226,-1.21102 1.96336,-0.840645 -0.0812,0.131451 -0.25194,0.934763 -0.37932,1.785138 -0.26115,1.743372 -1.28202,7.14922 -1.61606,8.557594 -0.1208,0.509323 -0.36684,1.699948 -0.54675,2.645833 -1.03665,5.450301 -1.18802,6.614584 -0.85997,6.614584 0.22677,0 3.85978,-2.448798 8.63938,-5.8233 0.85137,-0.601084 1.70237,-1.152139 1.89111,-1.224566 0.18875,-0.07243 0.67539,0.30387 1.08143,0.836217 0.55778,0.731289 0.67328,1.070913 0.47245,1.389281 -0.14618,0.231758 -2.04377,1.645537 -4.21686,3.141731 -11.87161,8.173727 -12.31,8.453471 -12.27392,7.8322 z M 475.4027,35.076515 c -0.14942,-0.09954 -1.15323,-1.193011 -2.23068,-2.429938 -1.07745,-1.236927 -2.4378,-2.762433 -3.02298,-3.390014 -0.58519,-0.62758 -1.17773,-1.385741 -1.31675,-1.684801 -0.27539,-0.592391 -0.40814,-0.445168 3.53568,-3.921019 1.07324,-0.945885 2.08332,-1.839435 2.24463,-1.985665 0.16131,-0.14623 1.12673,-0.979668 2.14537,-1.852083 1.01865,-0.872416 1.91162,-1.647466 1.98438,-1.722334 0.0728,-0.07487 0.96573,-0.848775 1.98437,-1.719792 1.01865,-0.871017 1.93956,-1.70273 2.04647,-1.848251 0.20835,-0.283611 0.66407,0.161661 3.24647,3.172033 0.87243,1.017014 2.06248,2.36667 2.64456,2.999234 1.57784,1.714679 1.61269,1.837486 0.77081,2.716228 -0.40564,0.423388 -0.88218,0.769797 -1.05899,0.769797 -0.17681,0 -1.44496,-1.292409 -2.81811,-2.872021 -2.80823,-3.230464 -2.34703,-3.127269 -4.76279,-1.065693 -0.97964,0.836011 -1.20254,1.167282 -1.01735,1.511957 0.13043,0.24276 1.20097,1.552735 2.37898,2.911055 1.178,1.358321 2.14183,2.568127 2.14183,2.68846 0,0.2584 -1.53546,1.588742 -1.83371,1.588742 -0.19586,0 -1.36575,-1.298293 -3.62061,-4.018029 -0.93712,-1.130317 -2.01133,-1.640768 -2.26269,-1.0752 -0.0485,0.10914 -0.62398,0.630844 -1.27882,1.159341 -1.82655,1.474127 -2.64584,2.290368 -2.64584,2.635988 0,0.173177 1.07157,1.543919 2.38125,3.046094 1.30969,1.502176 2.38125,2.833698 2.38125,2.958938 0,0.227488 -0.94389,1.162323 -1.46784,1.453758 -0.15247,0.08481 -0.39947,0.07275 -0.54889,-0.02679 z M 209.27079,29.405431 c -1.38424,-4.195636 -2.71519,-8.092874 -3.59172,-10.517188 -0.60507,-1.67349 -1.194,-3.399896 -1.30873,-3.836459 -0.11474,-0.436562 -0.62488,-1.93925 -1.13366,-3.339306 -1.02426,-2.818585 -0.98147,-3.348837 0.23069,-2.858997 0.42338,0.171086 1.0079,0.406297 1.29894,0.52269 0.29104,0.116393 2.67229,1.004432 5.29166,1.973419 2.61938,0.968988 5.00063,1.85671 5.29167,1.972717 0.29104,0.116006 1.06495,0.41599 1.71979,0.666631 0.65485,0.250641 1.39737,0.56255 1.65006,0.693133 0.25269,0.130582 0.59188,0.237422 0.75376,0.237422 0.30644,0 1.59206,0.522945 3.11281,1.266177 l 0.88642,0.433218 -1.05255,0.981808 c -1.18144,1.102037 -1.59481,1.101656 -4.11566,-0.0038 -0.70329,-0.308408 -1.4772,-0.559823 -1.71979,-0.5587 -0.48014,0.0022 -5.70015,4.751718 -6.15354,5.598878 -0.21723,0.405908 -0.0921,1.047057 0.56661,2.903889 l 0.84539,2.382965 -0.87824,0.906114 c -0.91221,0.941163 -1.50661,1.143069 -1.69391,0.575384 z m 2.1172,-11.59158 1.84498,-1.868143 -0.62462,-0.513107 c -0.34354,-0.28221 -0.79164,-0.513108 -0.99578,-0.513108 -0.20413,0 -0.57789,-0.10684 -0.83058,-0.237422 -0.61297,-0.316768 -2.42279,-1.011918 -3.20363,-1.230514 -0.58601,-0.164052 -0.61899,-0.116918 -0.49841,0.712275 0.23956,1.647433 1.82964,5.518161 2.26683,5.518161 0.10792,0 1.02646,-0.840664 2.04121,-1.868142 z m 248.64182,1.140538 c 0.12556,-0.687208 1.23238,-3.810107 1.75825,-4.960938 0.133,-0.291042 0.85793,-2.196042 1.61096,-4.233333 1.56527,-4.234746 2.5324,-6.76204 3.0662,-8.012623 0.20399,-0.47788 0.37353,-1.01366103 0.37676,-1.19062503 0.003,-0.176964 0.21433,-0.592584 0.46909,-0.923601 l 0.46321,-0.601847 1.03389,1.058806 1.0339,1.05880703 -0.87146,2.321166 c -0.47931,1.276642 -1.02263,2.678354 -1.20738,3.114916 -0.18476,0.436563 -0.4868,1.210469 -0.67122,1.719792 -0.18441,0.509323 -0.48555,1.283229 -0.66921,1.719792 -0.56149,1.334699 -1.43878,3.841349 -1.43878,4.110967 0,0.461756 0.73383,0.267928 3.0427,-0.803675 1.25416,-0.582084 2.33245,-1.058334 2.39621,-1.058334 0.0638,0 0.86038,-0.34187 1.77028,-0.759712 4.58791,-2.106865 5.31911,-2.415288 5.72613,-2.415288 0.50055,0 2.14593,1.410962 2.14593,1.840204 0,0.271792 -2.23744,1.393809 -4.79564,2.404884 -0.67306,0.266017 -1.80416,0.74125 -2.51354,1.056074 -0.70938,0.314825 -1.52791,0.672818 -1.81895,0.795541 -0.29104,0.122723 -1.24354,0.540328 -2.11667,0.928012 -0.87312,0.387683 -2.12397,0.917053 -2.77965,1.176377 -0.65569,0.259325 -2.1229,0.901416 -3.26047,1.426871 -2.54479,1.175458 -2.92951,1.207317 -2.75054,0.227767 z M 221.54762,9.429814 C 219.93051,6.118981 217.95269,2.082606 217.15246,0.46009297 216.35223,-1.162421 215.73829,-2.679801 215.78815,-2.911862 c 0.10113,-0.470649 -0.21475,-0.596823 3.39795,1.357293 8.47285,4.582981 10.11269,5.408872 10.32266,5.198905 0.13652,-0.136521 0.12653,-0.677258 -0.0239,-1.292784 -0.14221,-0.581956 -0.36163,-1.59388303 -0.4876,-2.24872603 -0.12597,-0.654844 -0.54176,-2.61937597 -0.92397,-4.36562597 -1.37182,-6.267458 -1.5182,-7.025804 -1.41558,-7.333651 0.0572,-0.171721 1.65236,1.110445 3.54472,2.849257 1.89235,1.738813 5.31098,4.876506 7.59696,6.972653 l 4.15632,3.811175 -0.54519,0.580319 c -0.29985,0.319176 -0.83777,0.736909 -1.19537,0.928295 -0.72002,0.385341 -0.2852,0.73044 -6.46232,-5.128871 -1.37438,-1.303668 -2.5463,-2.228035 -2.60426,-2.054148 -0.0959,0.287719 0.004,0.851591 0.73534,4.13747197 0.1295,0.58208303 0.43816,2.01083303 0.68592,3.17500003 0.24776,1.164166 0.61174,2.765806 0.80885,3.559198 0.21959,0.883905 0.26358,1.537325 0.11359,1.687316 -0.22964,0.229637 -2.12788,-0.703321 -7.69161,-3.780312 -2.46559,-1.363581 -3.72239,-1.933048 -3.89196,-1.763479 -0.13006,0.130063 0.24779,0.914982 3.30667,6.869012 0.88502,1.722683 1.54843,3.290353 1.47423,3.483711 -0.0742,0.193358 -0.59996,0.659316 -1.16835,1.035462 l -1.03345,0.683901 z m 232.3524,3.597339 c -1.25187,-0.920642 -1.2367,-0.795093 -0.45883,-3.796202 0.22631,-0.873125 0.41572,-1.730605 0.4209,-1.905512 0.005,-0.174906 -1.47882,-1.462863 -3.29778,-2.862127 -3.70792,-2.852363 -3.31204,-2.773448 -6.2989,-1.255647 l -1.80089,0.915144 -1.04338,-0.723058 c -0.57385,-0.397683 -1.04337,-0.878796 -1.04337,-1.06914 0,-0.190344 2.11336,-1.41148703 4.69635,-2.71364903 2.583,-1.30216297 6.82423,-3.45195297 9.42496,-4.77731097 2.60073,-1.325358 4.95761,-2.409742 5.23751,-2.409742 0.44179,0 0.48657,0.130848 0.33953,0.992187 -0.0932,0.545703 -0.27036,1.349375 -0.39377,1.785938 -0.22828,0.807512 -0.89479,3.638876 -1.30796,5.55624997 -0.12543,0.58208303 -0.41095,1.83224003 -0.63449,2.77812503 -0.22354,0.945885 -0.71504,3.089011 -1.09222,4.7625 -0.79606,3.532051 -1.21382,5.07932 -1.44667,5.358149 -0.0913,0.109325 -0.67674,-0.176832 -1.30099,-0.635905 z m 1.08475,-10.146202 c 0.2186,-0.770273 0.53209,-2.10361903 0.98457,-4.187686 0.29246,-1.347014 -0.14137,-1.49499 -1.76686,-0.602666 -0.69135,0.379523 -1.81753,0.94812297 -2.50263,1.26355397 -1.41806,0.652908 -1.76159,1.199846 -1.06158,1.69015103 0.26552,0.18598 1.13139,0.882905 1.92415,1.548723 0.79276,0.665818 1.61142,1.181575 1.81924,1.146126 0.20781,-0.03545 0.47921,-0.42164 0.60311,-0.858202 z M 243.19014,-3.432162 c -1.12452,-1.912059 -2.25273,-3.829429 -2.50712,-4.260822 -0.2544,-0.431393 -1.29615,-2.157799 -2.31499,-3.836458 -1.01885,-1.67866 -2.09041,-3.504923 -2.38125,-4.058363 l -0.52881,-1.006255 0.66146,-0.506385 c 0.3638,-0.278512 1.59346,-0.986556 2.73256,-1.573432 2.38308,-1.227781 3.77894,-1.368772 5.55019,-0.560605 1.90369,0.868596 3.09434,2.711414 3.09434,4.789228 0,1.060667 0.29429,1.318912 1.50301,1.318912 1.75362,0 3.75004,1.860152 4.33737,4.041328 0.50306,1.868238 -0.0796,3.507708 -1.85485,5.219089 -0.83023,0.800365 -1.85826,1.631101 -2.2845,1.846081 -0.42624,0.21498 -1.22726,0.666612 -1.78004,1.003627 -2.17162,1.32397797 -1.95505,1.44774297 -4.22737,-2.415945 z m 4.95513,-1.246476 c 1.82026,-1.154373 2.24251,-1.750715 2.25286,-3.181699 0.0189,-2.605721 -2.20041,-3.513042 -5.05682,-2.067421 -1.8972,0.960165 -1.92937,1.098315 -0.72075,3.095225 1.65271,2.730652 1.81469,2.966608 2.03651,2.966608 0.11367,0 0.78336,-0.365721 1.4882,-0.812713 z m -3.69622,-7.992039 c 1.12814,-1.61065 -0.33082,-4.424415 -2.2941,-4.424415 -1.06534,0 -2.59593,0.80615 -2.59593,1.367261 0,0.554041 1.97176,3.905981 2.57552,4.378311 0.33198,0.259721 0.55561,0.218716 1.16199,-0.213068 0.41299,-0.294075 0.93163,-0.792715 1.15252,-1.108089 z m 12.0433,-5.213124 c 0,-7.744804 0.0862,-11.117544 0.28412,-11.117544 0.24588,0 2.32214,1.63876 4.47838,3.53471 0.3638,0.31988 1.43203,1.23301 2.37384,2.02918 0.94181,0.79616 2.55677,2.16195 3.58879,3.03507 1.03203,0.873126 2.16916,1.825626 2.52697,2.116668 1.92795,1.568197 3.94582,3.383158 3.94582,3.54905 0,0.280203 -1.78522,1.081159 -2.40976,1.081159 -0.29685,0 -1.31161,-0.654844 -2.25504,-1.455209 -0.94342,-0.800364 -1.82978,-1.455208 -1.96969,-1.455208 -0.32698,0 -2.94536,1.163025 -5.65886,2.513542 l -2.12644,1.058333 -0.0757,2.579867 c -0.0825,2.809551 -0.23317,3.075045 -1.97479,3.479114 l -0.72761,0.168809 z m 5.56897,0.49237 c 1.22993,-0.599549 2.26881,-1.118289 2.30861,-1.152756 0.4095,-0.354574 -4.02247,-4.371738 -4.82316,-4.371738 -0.34553,0 -0.40858,0.48656 -0.40858,3.152951 0,2.274798 0.0921,3.19012 0.33072,3.286404 0.18191,0.0734 0.33646,0.142852 0.34345,0.15434 0.007,0.01149 1.01903,-0.469652 2.24896,-1.069201 z m 14.33497,0.279996 c -1.20293,-0.610831 -2.70819,-2.219375 -2.70275,-2.888212 0.003,-0.393698 1.58564,-1.593358 2.10176,-1.593358 0.14321,0 0.53183,0.36879 0.86361,0.81954 1.17138,1.591398 2.50006,1.90746 4.31837,1.027231 1.49494,-0.723691 2.14183,-2.090771 1.72385,-3.643041 -0.50878,-1.88947 -1.78033,-2.45149 -6.42397,-2.83936 -3.45186,-0.28832 -5.24069,-1.94213 -5.22393,-4.82962 0.007,-1.21165 0.15422,-1.72533 0.73521,-2.56569 1.50796,-2.18116 4.41529,-3.39134 6.6814,-2.78113 1.57,0.42275 2.60909,1.05224 2.62471,1.59008 0.002,0.0767 -0.3528,0.53018 -0.78896,1.00771 -0.7507,0.82191 -0.82443,0.84623 -1.38179,0.45584 -0.33308,-0.2333 -1.13591,-0.4124 -1.84865,-0.4124 -1.5969,0 -2.7957,0.96191 -3.02907,2.43049 -0.13103,0.8246 -0.0464,1.07586 0.54746,1.62628 0.60043,0.55646 1.05653,0.67673 3.14073,0.82816 5.73373,0.41661 7.86225,2.06676 7.86225,6.09528 0,1.88647 -0.52275,3.25925 -1.6279,4.274979 -1.99249,1.831279 -5.45818,2.470756 -7.57233,1.397221 z m 120.85439,-1.218886 c -1.93526,-0.658873 -3.40473,-1.947624 -4.08763,-3.584914 -0.43211,-1.03604 -0.56146,-3.52186 -0.19503,-3.74832 0.11838,-0.0732 0.80299,-0.0476 1.52135,0.0567 l 1.30611,0.18978 -0.0843,0.96395 c -0.24937,2.85067 3.32505,4.788828 5.48299,2.97304 1.02423,-0.86183 1.51821,-2.50339 1.07517,-3.57297 -0.17088,-0.41255 -1.28522,-1.67805 -2.4763,-2.81223 -2.79763,-2.66397 -3.15969,-3.25139 -3.15969,-5.12641 0,-1.71888 0.66757,-3.04031 2.02508,-4.00861 0.7177,-0.51193 1.17534,-0.60004 3.11629,-0.60004 3.14138,0 4.66994,0.85147 5.82981,3.24744 0.66481,1.37331 0.4187,1.81634 -1.08758,1.9578 -0.8275,0.0777 -0.97414,-0.0136 -1.45521,-0.9059 -1.40216,-2.60082 -5.42978,-2.28016 -5.42978,0.43229 0,0.97251 0.14992,1.15973 3.26848,4.08171 1.86609,1.74845 2.55236,3.04316 2.55236,4.8153 0,2.17363 -1.40602,4.422931 -3.30568,5.28833 -1.11424,0.507593 -3.86075,0.705603 -4.89641,0.353005 z m -105.60037,-3.216164 c -1.54846,-0.71693 -3.40796,-2.59973 -3.40796,-3.45066 0,-0.31242 1.75023,-1.35836 2.27301,-1.35836 0.21487,0 0.63019,0.40595 0.92294,0.90212 1.70077,2.88259 6.06447,1.57164 6.06447,-1.8219 0,-1.79416 -1.09958,-2.81885 -3.49938,-3.26103 -0.94656,-0.17441 -1.97101,-0.31711 -2.27657,-0.31711 -0.30556,0 -1.12527,-0.19026 -1.82158,-0.42281 -4.51323,-1.50727 -4.67242,-6.99409 -0.26899,-9.27119 2.00259,-1.03558 5.43426,-0.64331 6.74473,0.77097 l 0.54545,0.58865 -0.85121,0.83171 -0.85122,0.83171 -1.14325,-0.5241 c -1.33568,-0.61233 -2.58212,-0.48482 -3.75782,0.38441 -0.62659,0.46326 -0.75766,0.7542 -0.75766,1.68183 0,1.39847 0.79853,2.12029 2.59831,2.3487 5.07327,0.64386 6.25635,1.13923 7.5655,3.16776 0.72538,1.12398 0.8975,4.24208 0.30328,5.4943 -1.46627,3.08993 -5.52435,4.748108 -8.38205,3.425 z m 94.88475,-0.45957 c -0.68756,-0.34736 -1.00402,-0.93947 -2.36542,-4.42575 -2.11114,-5.40622 -2.4159,-5.69665 -3.05631,-2.9126 -0.68889,2.9948 -1.32803,5.46123 -1.44571,5.57891 -0.19665,0.19665 -1.87113,-0.19097 -2.34512,-0.54286 -0.3611,-0.26808 -0.3943,-0.49505 -0.18337,-1.2534 0.14167,-0.50933 0.7393,-2.95011 1.32808,-5.42396 0.58877,-2.47386 1.17786,-4.91464 1.30907,-5.42396 0.37048,-1.43809 1.02836,-4.27579 1.20722,-5.20724 0.26982,-1.4051 0.64479,-1.53191 2.97048,-1.00458 5.43987,1.23344 7.72897,3.63429 6.96658,7.3067 -0.48621,2.34208 -2.70253,4.4359 -4.71623,4.45556 -0.78409,0.008 -0.75531,0.43653 0.16416,2.44658 0.41771,0.91315 1.15011,2.61277 1.62754,3.77694 0.47744,1.16417 0.96808,2.24668 1.09032,2.40559 0.55357,0.71967 -1.25575,0.87857 -2.55129,0.22407 z m 0.76547,-12.25743 c 0.93402,-0.97491 1.20747,-2.64648 0.58767,-3.59241 -0.56168,-0.85722 -2.27911,-1.72878 -3.40662,-1.72878 h -0.88393 l -0.58182,2.34273 c -0.6668,2.68496 -0.71572,3.37997 -0.25108,3.56746 0.1819,0.0734 1.11212,0.14285 2.06716,0.15434 1.58236,0.019 1.80141,-0.0469 2.46862,-0.74334 z m -84.24151,10.05857 c 0,-0.52495 0.33293,-1.85975 1.19636,-4.79643 0.64099,-2.1801 0.8227,-2.81307 1.59507,-5.55625 0.91162,-3.23772 1.27931,-4.5047 1.91963,-6.61458 0.28706,-0.94589 0.68052,-2.28648 0.87436,-2.97911 0.19384,-0.69262 0.47339,-1.21899 0.62122,-1.16972 0.14784,0.0493 0.98729,1.15175 1.86546,2.44994 0.87817,1.29819 2.61593,3.84863 3.8617,5.66764 5.51904,8.05863 6.58703,9.67273 6.58703,9.95528 0,0.33865 -2.2759,0.98898 -2.6506,0.7574 -0.13322,-0.0823 -0.86143,-1.04543 -1.61825,-2.14021 l -1.37604,-1.99051 -1.74162,0.17181 c -0.95789,0.0945 -2.15833,0.27093 -2.66766,0.39208 -0.50932,0.12115 -1.54159,0.29916 -2.29393,0.39558 -1.92391,0.24658 -2.03388,0.40389 -2.95884,4.23253 -0.20041,0.82953 -0.84967,1.2657 -2.354,1.58138 -0.74707,0.15678 -0.85989,0.10996 -0.85989,-0.35683 z m 8.24804,-8.52508 c 0.77509,-0.15898 1.6839,-0.34154 2.01959,-0.40568 0.46497,-0.0888 0.57151,-0.23901 0.44728,-0.63041 -0.15854,-0.49952 -2.19305,-3.70136 -2.5204,-3.96651 -0.0898,-0.0728 -0.24357,-0.34945 -0.34166,-0.61486 -0.0987,-0.26717 -0.378,-0.44413 -0.62564,-0.39644 -0.31862,0.0614 -0.63162,0.77104 -1.08804,2.46695 -1.04193,3.87154 -1.04097,3.83602 -0.10397,3.83602 0.44198,0 1.43776,-0.13008 2.21284,-0.28907 z m 52.32296,6.5584 c -1.83434,-0.61403 -3.34954,-1.92753 -4.24239,-3.67767 -0.49877,-0.97768 -0.54032,-1.40289 -0.41883,-4.2859 0.0742,-1.76031 0.33193,-4.45071 0.57276,-5.97868 0.24083,-1.52797 0.5193,-3.4925 0.61881,-4.36562 l 0.18094,-1.5875 h 1.45521 c 1.77371,0 1.72319,-1.06369 0.39586,8.33437 -0.75871,5.37195 -0.76097,5.5604 -0.0824,6.87917 1.39137,2.70418 5.64507,3.20142 7.31574,0.85518 0.58257,-0.81813 1.36817,-3.54226 1.36402,-4.72983 -0.003,-0.81357 0.65923,-5.49743 1.17266,-8.29618 l 0.3155,-1.7198 0.99978,0.0322 c 1.85618,0.0598 1.87768,0.25255 0.82261,7.37614 -0.23709,1.60073 -0.52692,3.68432 -0.64407,4.63021 -0.37914,3.06119 -1.55988,4.90528 -3.89609,6.08494 -1.48254,0.7486 -4.37971,0.96795 -5.93008,0.44897 z m -39.26425,-1.04066 c -0.33323,-1.00871 -1.36839,-18.16244 -1.13304,-18.77576 0.16404,-0.42748 2.43022,-0.73514 5.43985,-0.73853 4.45266,-0.005 7.73295,1.88023 9.45744,5.43539 0.68318,1.40843 0.76446,1.85279 0.77181,4.22002 0.007,2.38672 -0.0662,2.79751 -0.75155,4.19459 -0.41788,0.85182 -1.29742,2.07129 -1.95452,2.70993 -2.08122,2.02276 -3.76733,2.54309 -10.19123,3.14501 -1.10047,0.10312 -1.55934,0.0497 -1.63876,-0.19065 z m 5.94533,-2.99813 c 4.17038,-0.61653 6.83656,-5.10598 5.41877,-9.12442 -1.08862,-3.08546 -3.76474,-4.74779 -7.64329,-4.74779 -1.93261,0 -2.02154,0.19608 -1.7434,3.84403 0.12173,1.59657 0.30418,4.48936 0.40545,6.42843 0.17033,3.26153 0.22641,3.54308 0.74882,3.75924 0.31058,0.12851 0.80282,0.1848 1.09386,0.12509 0.29104,-0.0597 1.06495,-0.18777 1.71979,-0.28458 z m 13.25874,2.17072 c -0.22264,-0.26827 -0.22715,-2.73693 -0.0175,-9.59115 0.15524,-5.07645 0.33803,-9.39611 0.40621,-9.59924 0.10287,-0.30651 0.87672,-0.33747 4.54921,-0.18198 2.43389,0.10305 4.84198,0.27413 5.3513,0.38019 0.89105,0.18553 0.92604,0.2374 0.92604,1.3726 v 1.17978 l -3.814,-0.0772 c -2.89675,-0.0586 -3.86615,0.005 -4.03085,0.26458 -0.35256,0.55574 -0.27048,4.11889 0.10017,4.34796 0.17881,0.11051 1.87545,0.26637 3.77031,0.34635 l 3.4452,0.14541 v 1.19063 1.19062 h -3.62346 c -2.24425,0 -3.7329,0.10893 -3.91096,0.28617 -0.45294,0.45085 -0.68745,5.56178 -0.27784,6.05533 0.27261,0.32848 1.03297,0.40538 4.0082,0.40538 h 3.67177 v 1.32291 1.32292 h -5.12698 c -4.00977,0 -5.1923,-0.0787 -5.42678,-0.36124 z"
       id="path1" /></g></svg>
